<?xml version="1.0" encoding="utf-8"?>
<!-- Generator: Adobe Illustrator 15.0.0, SVG Export Plug-In . SVG Version: 6.00 Build 0)  -->
<!DOCTYPE svg PUBLIC "-//W3C//DTD SVG 1.1//EN" "http://www.w3.org/Graphics/SVG/1.1/DTD/svg11.dtd">
<svg version="1.1" id="Layer_1" xmlns="http://www.w3.org/2000/svg" xmlns:xlink="http://www.w3.org/1999/xlink" x="0px" y="0px"
	 width="103px" height="15px" viewBox="0 0 103 15" enable-background="new 0 0 103 15" xml:space="preserve">
<g id="Layer_1_1_" display="none">
	<image display="inline" overflow="visible" enable-background="new    " width="103" height="15" xlink:href="291776BC.png" >
	</image>
</g>
<g id="Layer_2">
	<g>
		<g>
			<path d="M11.482,1.039H8.06L2.834,6.67V1.039H0V13.92h2.834V9.982l1.49-1.547l3.993,5.483h3.404L6.238,6.504L11.482,1.039z
				 M23.894,2.76c-0.607-0.595-1.328-1.067-2.162-1.417c-0.834-0.35-1.748-0.524-2.742-0.524c-0.994,0-1.911,0.175-2.751,0.524
				c-0.84,0.35-1.564,0.828-2.171,1.435s-1.083,1.313-1.426,2.116c-0.343,0.804-0.515,1.666-0.515,2.585v0.037
				c0,0.919,0.168,1.782,0.506,2.585c0.337,0.804,0.81,1.502,1.417,2.098c0.607,0.595,1.328,1.066,2.162,1.417
				c0.834,0.35,1.749,0.524,2.742,0.524c0.994,0,1.911-0.176,2.751-0.524s1.564-0.828,2.171-1.437
				c0.607-0.606,1.083-1.313,1.426-2.115c0.343-0.804,0.515-1.666,0.515-2.585V7.442c0-0.92-0.169-1.781-0.506-2.585
				C24.973,4.054,24.501,3.355,23.894,2.76z M22.854,7.516c0,0.552-0.095,1.071-0.285,1.554c-0.19,0.484-0.454,0.912-0.792,1.279
				c-0.337,0.367-0.745,0.656-1.224,0.864c-0.479,0.209-1,0.313-1.564,0.313c-0.577,0-1.101-0.107-1.573-0.321
				c-0.473-0.215-0.883-0.507-1.233-0.874c-0.35-0.368-0.62-0.798-0.81-1.288c-0.19-0.491-0.285-1.013-0.285-1.564V7.442
				c0-0.552,0.095-1.07,0.285-1.555c0.19-0.484,0.454-0.911,0.791-1.279c0.337-0.368,0.742-0.656,1.214-0.865
				s0.997-0.313,1.573-0.313c0.564,0,1.086,0.107,1.564,0.322c0.478,0.214,0.892,0.506,1.242,0.874
				c0.35,0.368,0.62,0.797,0.81,1.288s0.285,1.012,0.285,1.564v0.038H22.854z M30.435,1.039h-2.834V13.92h9.256v-2.559h-6.422V1.039
				z M49.452,2.76c-0.607-0.595-1.328-1.067-2.162-1.417c-0.834-0.35-1.748-0.524-2.742-0.524c-0.994,0-1.911,0.175-2.75,0.524
				c-0.841,0.35-1.564,0.828-2.171,1.435s-1.083,1.313-1.426,2.116c-0.344,0.804-0.515,1.666-0.515,2.585v0.037
				c0,0.919,0.168,1.782,0.506,2.585c0.338,0.803,0.81,1.502,1.417,2.098c0.607,0.595,1.328,1.066,2.162,1.417
				c0.834,0.35,1.748,0.524,2.742,0.524c0.994,0,1.911-0.176,2.751-0.524c0.84-0.351,1.564-0.828,2.171-1.437
				c0.607-0.606,1.083-1.313,1.426-2.115c0.343-0.804,0.515-1.666,0.515-2.585V7.442c0-0.92-0.168-1.781-0.506-2.585
				C50.531,4.054,50.059,3.355,49.452,2.76z M48.412,7.516c0,0.552-0.095,1.071-0.285,1.554c-0.19,0.484-0.454,0.912-0.791,1.279
				c-0.338,0.367-0.746,0.656-1.224,0.864c-0.479,0.209-1,0.313-1.564,0.313c-0.577,0-1.101-0.107-1.573-0.321
				c-0.472-0.215-0.883-0.507-1.233-0.874c-0.35-0.368-0.619-0.798-0.81-1.288c-0.19-0.491-0.285-1.013-0.285-1.564V7.442
				c0-0.552,0.095-1.07,0.285-1.555c0.19-0.484,0.454-0.911,0.792-1.279c0.337-0.368,0.742-0.656,1.214-0.865
				c0.472-0.208,0.997-0.313,1.573-0.313c0.564,0,1.085,0.107,1.564,0.322c0.479,0.214,0.893,0.506,1.242,0.874
				c0.35,0.368,0.619,0.797,0.81,1.288c0.19,0.491,0.285,1.012,0.285,1.564V7.516z M61.809,8.97l-6.037-7.931H53.16V13.92h2.797
				V5.731l6.236,8.188h2.412V1.039h-2.797V8.97L61.809,8.97z M82.018,5.391C81.705,5.054,81.324,4.79,80.877,4.6
				s-0.947-0.285-1.5-0.285c-0.441,0-0.836,0.055-1.186,0.166c-0.351,0.111-0.664,0.261-0.939,0.451s-0.518,0.408-0.727,0.653
				c-0.209,0.246-0.387,0.497-0.533,0.754c-0.135-0.27-0.299-0.527-0.488-0.772c-0.189-0.245-0.414-0.46-0.672-0.644
				c-0.258-0.184-0.555-0.332-0.893-0.442s-0.707-0.166-1.113-0.166c-0.416,0-0.787,0.052-1.113,0.156
				c-0.324,0.104-0.609,0.246-0.855,0.423c-0.246,0.178-0.463,0.38-0.651,0.607c-0.19,0.227-0.358,0.463-0.506,0.708V4.535h-0.902
				v9.385H69.7V8.51c0-0.479,0.075-0.92,0.229-1.325c0.153-0.405,0.364-0.76,0.635-1.067c0.27-0.306,0.59-0.545,0.957-0.718
				c0.369-0.171,0.762-0.257,1.178-0.257c0.848,0,1.516,0.279,2.006,0.837s0.736,1.328,0.736,2.309v5.631h0.901V8.455
				c0-0.528,0.078-0.997,0.238-1.408s0.375-0.757,0.646-1.04c0.27-0.283,0.586-0.497,0.946-0.644
				c0.361-0.147,0.738-0.221,1.132-0.221c0.87,0,1.553,0.279,2.043,0.837c0.489,0.558,0.735,1.346,0.735,2.365v5.575h0.901V8.234
				c0-0.589-0.084-1.126-0.248-1.61C82.57,6.139,82.33,5.729,82.018,5.391z M89.5,4.388c-0.65,0-1.238,0.075-1.766,0.226
				c-0.528,0.151-1.049,0.351-1.564,0.602l0.332,0.792c0.428-0.221,0.883-0.402,1.361-0.543c0.479-0.141,1.006-0.211,1.582-0.211
				c0.969,0,1.727,0.238,2.272,0.713c0.546,0.476,0.818,1.189,0.818,2.141V8.51c-0.455-0.121-0.92-0.221-1.397-0.294
				c-0.479-0.073-1.05-0.11-1.712-0.11c-0.612,0-1.172,0.067-1.676,0.203c-0.502,0.135-0.933,0.33-1.287,0.588
				c-0.354,0.259-0.635,0.576-0.838,0.957c-0.201,0.381-0.303,0.815-0.303,1.307v0.037c0,0.49,0.106,0.92,0.321,1.287
				c0.213,0.369,0.492,0.676,0.836,0.921c0.345,0.245,0.73,0.43,1.16,0.552c0.43,0.123,0.865,0.186,1.308,0.186
				s0.85-0.054,1.223-0.156c0.375-0.104,0.709-0.239,1.004-0.405c0.293-0.165,0.556-0.354,0.781-0.57
				c0.226-0.215,0.42-0.433,0.58-0.653v1.564h0.883V8.068c0-1.128-0.317-2.012-0.957-2.65C91.775,4.732,90.789,4.388,89.5,4.388z
				 M92.555,10.398c0,0.429-0.094,0.818-0.285,1.172c-0.188,0.354-0.446,0.658-0.771,0.908c-0.326,0.25-0.703,0.445-1.133,0.586
				c-0.431,0.141-0.884,0.211-1.361,0.211c-0.354,0-0.698-0.049-1.03-0.146c-0.33-0.098-0.621-0.238-0.873-0.421
				c-0.252-0.185-0.451-0.406-0.599-0.669c-0.147-0.264-0.221-0.564-0.221-0.907v-0.037c0-0.659,0.266-1.188,0.799-1.584
				c0.535-0.396,1.299-0.596,2.291-0.596c0.676,0,1.276,0.046,1.805,0.137c0.527,0.093,0.986,0.188,1.38,0.284v1.063H92.555z
				 M96.975,13.92h0.902V0.487h-0.902V13.92z M101.182,0.487V13.92h0.902V0.487H101.182z"/>
		</g>
	</g>
</g>
</svg>
